<?xml version="1.0" encoding="UTF-8"?>
<svg xmlns="http://www.w3.org/2000/svg" xmlns:xlink="http://www.w3.org/1999/xlink" width="px" height="px" viewBox="0 0 1873 377" version="1.1">
<g id="surface1">
<path style=" stroke:none;fill-rule:nonzero;fill:rgb(34.117647%,24.313725%,49.019608%);fill-opacity:1;" d="M 0.890625 0.714844 C 2.429688 0.433594 3.6875 -0.00390625 4.945312 0 C 56.757812 0.199219 108.574219 0.125 160.378906 0.847656 C 178.039062 1.089844 194.261719 7.324219 208.765625 17.652344 C 241.875 41.222656 244.933594 108.554688 199.480469 132.707031 C 197.167969 133.9375 194.867188 135.179688 191.726562 136.855469 C 200.363281 140.824219 208.863281 143.480469 215.984375 148.214844 C 243.324219 166.382812 254.457031 207.035156 242.21875 242.742188 C 231.539062 273.890625 206.183594 286.757812 176.695312 293.597656 C 167.011719 295.847656 156.867188 297.011719 146.921875 297.082031 C 98.488281 297.433594 50.050781 297.238281 0.886719 297.238281 C 0.890625 198.511719 0.890625 99.769531 0.890625 0.714844 Z M 52.691406 253.78125 C 88.714844 253.78125 123.699219 254.605469 158.617188 253.488281 C 180.570312 252.785156 196.429688 229.246094 195.109375 206.351562 C 193.808594 183.785156 179.917969 164.589844 158.445312 163.589844 C 123.828125 161.96875 89.117188 162.429688 54.441406 162.066406 C 53.925781 162.0625 53.398438 162.824219 52.691406 163.375 Z M 52.8125 123.433594 C 85.011719 123.433594 116.0625 124.605469 146.976562 123.042969 C 169.738281 121.890625 182.589844 103.683594 181.738281 78.789062 C 180.984375 56.75 167.976562 43.496094 144.554688 42.875 C 115.191406 42.105469 85.792969 42.464844 56.410156 42.394531 C 55.214844 42.390625 54.015625 43.035156 52.8125 43.378906 Z M 1658.402344 82.699219 L 1701.59375 82.699219 L 1701.59375 105.855469 C 1706.402344 102.144531 1712.257812 98.023438 1717.660156 93.382812 C 1750.753906 64.96875 1829.246094 68.457031 1856.113281 125.675781 C 1879.230469 174.917969 1878.222656 224.441406 1847.019531 270.285156 C 1829.734375 295.679688 1802.972656 304.753906 1772.65625 303.121094 C 1746.316406 301.699219 1723.125 293.417969 1704.878906 269.019531 L 1704.878906 377 L 1658.40625 377 C 1658.402344 278.8125 1658.402344 181.035156 1658.402344 82.699219 Z M 1702.277344 191.128906 C 1704.222656 201.914062 1705.292969 212.957031 1708.300781 223.4375 C 1715.015625 246.824219 1735.460938 264.121094 1756.640625 265.613281 C 1784.96875 267.613281 1805.3125 257.140625 1815.550781 232.015625 C 1828.566406 200.085938 1828.105469 167.882812 1809.082031 138.042969 C 1786.652344 102.839844 1732.890625 105.78125 1713.878906 142.660156 C 1706.054688 157.839844 1702.222656 173.816406 1702.277344 191.128906 Z M 1627.804688 266.523438 C 1627.804688 275.347656 1628.113281 284.3125 1627.578125 293.226562 C 1627.445312 295.429688 1624.6875 299.144531 1622.898438 299.300781 C 1609.429688 300.421875 1595.738281 302.386719 1582.441406 301 C 1570.714844 299.773438 1564.253906 289.832031 1560.640625 278.335938 C 1532.808594 301.003906 1500.894531 305.90625 1466.945312 301.699219 C 1438.554688 298.179688 1415.035156 274.859375 1413.011719 248.964844 C 1410.21875 213.273438 1423.925781 190.035156 1455.957031 181.574219 C 1478.425781 175.644531 1501.824219 173.261719 1524.796875 169.257812 C 1530.371094 168.285156 1536.011719 167.492188 1541.453125 166.003906 C 1551.90625 163.148438 1559.449219 157.359375 1560.214844 145.453125 C 1561.007812 133.148438 1556.238281 123.558594 1544.675781 118.898438 C 1524.941406 110.957031 1504.851562 111.15625 1485.421875 120.25 C 1476.558594 124.394531 1471.292969 132.746094 1466.652344 146.921875 L 1421.125 146.921875 C 1421.164062 129.5625 1427.203125 114.96875 1438.730469 102.683594 C 1453.960938 86.453125 1473.808594 80.082031 1495.1875 77.84375 C 1517.5625 75.503906 1539.8125 75.605469 1561.550781 82.941406 C 1590.78125 92.800781 1604.78125 112.097656 1604.738281 142.984375 C 1604.699219 175.773438 1604.726562 208.5625 1604.71875 241.355469 C 1604.714844 264.628906 1604.710938 264.628906 1627.804688 266.523438 Z M 1557.445312 192.53125 C 1543.09375 195.019531 1529.96875 196.925781 1517.011719 199.636719 C 1503.386719 202.488281 1489.5 204.957031 1476.507812 209.71875 C 1463.769531 214.386719 1459.441406 226.296875 1459.863281 239.085938 C 1460.261719 251.3125 1468.613281 258.164062 1479.371094 261.925781 C 1497.828125 268.375 1516.324219 267.578125 1533.925781 259.34375 C 1546.53125 253.445312 1556.128906 243.800781 1557.257812 229.0625 C 1558.1875 216.789062 1557.445312 204.386719 1557.445312 192.53125 Z M 386.03125 76.5 C 457.429688 75.664062 499.296875 128.019531 494.878906 199.304688 C 493.347656 224.085938 486.691406 247.242188 470.390625 266.824219 C 452.820312 287.925781 430.214844 299.035156 403.113281 302.050781 C 380.484375 304.574219 358.496094 303.089844 337.527344 293.570312 C 306.296875 279.386719 288.484375 254.636719 280.992188 221.660156 C 275.855469 199.058594 276.078125 176.554688 281.839844 154.195312 C 294.546875 104.878906 332.507812 76.695312 386.03125 76.5 Z M 323.882812 190.265625 C 325.757812 200.730469 326.738281 211.453125 329.679688 221.609375 C 337.167969 247.460938 357.566406 264.53125 380.886719 265.664062 C 409.714844 267.0625 429.882812 254.929688 440.59375 228.066406 C 451.054688 201.84375 451.070312 175.007812 439.601562 149.101562 C 422.613281 110.71875 376.324219 100.902344 346.515625 129.433594 C 329.519531 145.699219 325.132812 167.3125 323.882812 190.265625 Z M 633.738281 76.503906 C 698.136719 76.402344 741.949219 119.816406 742.765625 184.382812 C 743.109375 211.648438 738.671875 237.648438 722.671875 260.488281 C 699.773438 293.183594 666.691406 304.625 628.609375 302.890625 C 614.578125 302.25 600.03125 299.132812 586.957031 293.996094 C 556.25 281.9375 537.941406 258.199219 529.808594 226.421875 C 522.667969 198.519531 523.460938 170.792969 532.542969 143.519531 C 546.476562 101.6875 584.695312 76.578125 633.738281 76.503906 Z M 695.460938 184.464844 C 694.421875 178.738281 693.398438 167.675781 690.3125 157.214844 C 682.46875 130.613281 661.734375 114.464844 635.613281 113.328125 C 611.015625 112.253906 588.886719 126.765625 579.34375 152.179688 C 568.105469 182.113281 568.933594 211.929688 585.867188 239.820312 C 603.507812 268.875 643.496094 275.242188 669.722656 253.5625 C 689.730469 237.023438 694.628906 214.183594 695.460938 184.464844 Z M 1093.605469 142.34375 C 1078.914062 142.34375 1064.601562 142.460938 1050.300781 142.1875 C 1048.539062 142.15625 1045.796875 140.390625 1045.226562 138.808594 C 1037.1875 116.460938 1018.265625 113.804688 998.699219 113.691406 C 990.585938 113.644531 981.953125 115.621094 974.4375 118.773438 C 958.382812 125.511719 956.597656 143.683594 971.644531 152.390625 C 982.085938 158.429688 994.339844 161.671875 1006.117188 164.988281 C 1022.773438 169.683594 1039.972656 172.507812 1056.527344 177.511719 C 1098.847656 190.308594 1115.390625 232.761719 1091.691406 267.753906 C 1080.324219 284.539062 1063.328125 293.621094 1043.835938 298.328125 C 1015.027344 305.285156 986.347656 305.792969 958.195312 295.621094 C 928.070312 284.734375 912.160156 262.882812 909.8125 229.808594 L 955.773438 229.808594 C 968.84375 263.9375 1005.773438 277.226562 1040.367188 259.789062 C 1048.371094 255.75 1053.714844 250.011719 1054.25 240.574219 C 1054.816406 230.492188 1050.925781 221.820312 1041.878906 218.441406 C 1025.75 212.425781 1008.902344 208.296875 992.34375 203.441406 C 978.628906 199.417969 964.480469 196.511719 951.242188 191.269531 C 925.710938 181.15625 914.617188 163.753906 914.773438 137.222656 C 914.910156 114.082031 928.433594 94.253906 952.410156 85.558594 C 985.40625 73.585938 1019.082031 72.097656 1052.226562 85.085938 C 1074.632812 93.867188 1087.988281 111.1875 1093.542969 134.503906 C 1094.042969 136.65625 1093.605469 139.042969 1093.605469 142.34375 Z M 844.058594 82.097656 L 886.601562 82.097656 L 886.601562 116.902344 L 844.914062 116.902344 C 844.621094 121.066406 844.238281 123.984375 844.234375 126.898438 C 844.195312 162.027344 844.179688 197.152344 844.25 232.269531 C 844.257812 236.945312 844.621094 241.632812 845.082031 246.289062 C 845.996094 255.578125 851.152344 261.09375 860.5 261.601562 C 869.066406 262.074219 877.679688 261.703125 886.75 261.703125 L 886.75 296.5 C 867.320312 301.3125 847.570312 301.058594 828.453125 296.796875 C 806.195312 291.835938 797.152344 276.515625 796.957031 247.511719 C 796.6875 208.039062 796.875 168.5625 796.867188 129.085938 L 796.867188 117.480469 L 761.535156 117.480469 L 761.535156 82.285156 L 796.390625 82.285156 L 796.390625 17.828125 L 844.0625 17.828125 C 844.058594 38.914062 844.058594 59.839844 844.058594 82.097656 Z M 1241.921875 297.839844 C 1223.617188 297.839844 1206.289062 298.410156 1189.019531 297.679688 C 1172.277344 296.96875 1159.386719 285.863281 1155.730469 269.285156 C 1153.644531 259.832031 1152.542969 250.191406 1152.433594 240.511719 C 1152.066406 203.375 1152.28125 166.226562 1152.28125 129.085938 L 1152.28125 117.339844 L 1117.066406 117.339844 L 1117.066406 82.609375 L 1151.757812 82.609375 L 1151.757812 17.890625 L 1199.523438 17.890625 L 1199.523438 81.558594 L 1241.859375 81.558594 L 1241.859375 116.542969 L 1201.234375 116.542969 C 1200.75 119.695312 1200.117188 121.875 1200.117188 124.0625 C 1200.082031 161.871094 1199.960938 199.683594 1200.207031 237.492188 C 1200.335938 257.488281 1205.570312 262.300781 1225.382812 262.160156 C 1230.675781 262.125 1235.972656 262.15625 1241.925781 262.15625 Z M 1321.375 82.816406 L 1321.375 119.433594 C 1339.71875 88.277344 1365.101562 72.042969 1402.59375 77.578125 L 1402.59375 122.75 C 1384.785156 120.074219 1367.605469 119.59375 1352.390625 130.53125 C 1332.4375 144.882812 1325.46875 165.855469 1324.972656 188.972656 C 1324.203125 224.707031 1324.769531 260.476562 1324.769531 297.011719 L 1277.988281 297.011719 L 1277.988281 82.816406 C 1292.160156 82.816406 1306.03125 82.816406 1321.375 82.816406 Z M 1321.375 82.816406 "/>
</g>
</svg>
