<?xml version="1.0" encoding="UTF-8"?>
<svg xmlns="http://www.w3.org/2000/svg" xmlns:xlink="http://www.w3.org/1999/xlink" width="px" height="px" viewBox="0 0 688 176" version="1.1">
<defs>
<linearGradient id="linear0" gradientUnits="userSpaceOnUse" x1="458" y1="-127.142" x2="741.882" y2="329.744" gradientTransform="matrix(0.751092,0,0,0.752137,0,0)">
<stop offset="0" style="stop-color:rgb(0%,87.843137%,56.078431%);stop-opacity:1;"/>
<stop offset="1" style="stop-color:rgb(0%,63.921569%,100%);stop-opacity:1;"/>
</linearGradient>
<linearGradient id="linear1" gradientUnits="userSpaceOnUse" x1="458" y1="-127.142" x2="741.882" y2="329.744" gradientTransform="matrix(0.751092,0,0,0.752137,0,0)">
<stop offset="0" style="stop-color:rgb(0%,87.843137%,56.078431%);stop-opacity:1;"/>
<stop offset="1" style="stop-color:rgb(0%,63.921569%,100%);stop-opacity:1;"/>
</linearGradient>
<linearGradient id="linear2" gradientUnits="userSpaceOnUse" x1="458" y1="-127.142" x2="741.882" y2="329.744" gradientTransform="matrix(0.751092,0,0,0.752137,0,0)">
<stop offset="0" style="stop-color:rgb(0%,87.843137%,56.078431%);stop-opacity:1;"/>
<stop offset="1" style="stop-color:rgb(0%,63.921569%,100%);stop-opacity:1;"/>
</linearGradient>
<linearGradient id="linear3" gradientUnits="userSpaceOnUse" x1="458" y1="-127.142" x2="741.882" y2="329.744" gradientTransform="matrix(0.751092,0,0,0.752137,0,0)">
<stop offset="0" style="stop-color:rgb(0%,87.843137%,56.078431%);stop-opacity:1;"/>
<stop offset="1" style="stop-color:rgb(0%,63.921569%,100%);stop-opacity:1;"/>
</linearGradient>
<linearGradient id="linear4" gradientUnits="userSpaceOnUse" x1="458" y1="-127.142" x2="741.882" y2="329.744" gradientTransform="matrix(0.751092,0,0,0.752137,0,0)">
<stop offset="0" style="stop-color:rgb(0%,87.843137%,56.078431%);stop-opacity:1;"/>
<stop offset="1" style="stop-color:rgb(0%,63.921569%,100%);stop-opacity:1;"/>
</linearGradient>
<linearGradient id="linear5" gradientUnits="userSpaceOnUse" x1="458" y1="-127.142" x2="741.882" y2="329.744" gradientTransform="matrix(0.751092,0,0,0.752137,0,0)">
<stop offset="0" style="stop-color:rgb(0%,87.843137%,56.078431%);stop-opacity:1;"/>
<stop offset="1" style="stop-color:rgb(0%,63.921569%,100%);stop-opacity:1;"/>
</linearGradient>
<linearGradient id="linear6" gradientUnits="userSpaceOnUse" x1="458" y1="-127.142" x2="741.882" y2="329.744" gradientTransform="matrix(0.751092,0,0,0.752137,0,0)">
<stop offset="0" style="stop-color:rgb(0%,87.843137%,56.078431%);stop-opacity:1;"/>
<stop offset="1" style="stop-color:rgb(0%,63.921569%,100%);stop-opacity:1;"/>
</linearGradient>
<linearGradient id="linear7" gradientUnits="userSpaceOnUse" x1="458" y1="-127.142" x2="741.882" y2="329.744" gradientTransform="matrix(0.751092,0,0,0.752137,0,0)">
<stop offset="0" style="stop-color:rgb(0%,87.843137%,56.078431%);stop-opacity:1;"/>
<stop offset="1" style="stop-color:rgb(0%,63.921569%,100%);stop-opacity:1;"/>
</linearGradient>
<linearGradient id="linear8" gradientUnits="userSpaceOnUse" x1="458" y1="-127.142" x2="741.882" y2="329.744" gradientTransform="matrix(0.751092,0,0,0.752137,0,0)">
<stop offset="0" style="stop-color:rgb(0%,87.843137%,56.078431%);stop-opacity:1;"/>
<stop offset="1" style="stop-color:rgb(0%,63.921569%,100%);stop-opacity:1;"/>
</linearGradient>
<linearGradient id="linear9" gradientUnits="userSpaceOnUse" x1="458" y1="-127.142" x2="741.882" y2="329.744" gradientTransform="matrix(0.751092,0,0,0.752137,0,0)">
<stop offset="0" style="stop-color:rgb(0%,87.843137%,56.078431%);stop-opacity:1;"/>
<stop offset="1" style="stop-color:rgb(0%,63.921569%,100%);stop-opacity:1;"/>
</linearGradient>
</defs>
<g id="surface1">
<path style=" stroke:none;fill-rule:nonzero;fill:url(#linear0);" d="M 209.355469 131.613281 L 209.355469 46.394531 C 209.355469 45.285156 210.019531 44.621094 211.125 44.621094 L 237.71875 44.621094 C 248.136719 44.621094 253.675781 50.167969 253.675781 60.597656 L 253.675781 87.671875 C 253.675781 97.992188 248.136719 103.652344 237.71875 103.652344 L 224.421875 103.652344 L 224.421875 131.613281 C 224.421875 132.722656 223.871094 133.386719 222.652344 133.386719 L 211.125 133.386719 C 210.019531 133.386719 209.355469 132.722656 209.355469 131.613281 Z M 224.421875 89.003906 L 234.175781 89.003906 C 237.167969 89.003906 238.605469 87.339844 238.605469 84.566406 L 238.605469 63.703125 C 238.605469 60.820312 237.167969 59.265625 234.175781 59.265625 L 224.421875 59.265625 Z M 224.421875 89.003906 "/>
<path style=" stroke:none;fill-rule:nonzero;fill:url(#linear1);" d="M 309.214844 60.597656 L 309.214844 87.671875 C 309.214844 95.105469 306.445312 99.988281 301.125 102.320312 L 308.773438 131.390625 C 309.105469 132.722656 308.441406 133.386719 307.222656 133.386719 L 295.699219 133.386719 C 294.589844 133.386719 294.035156 132.832031 293.8125 131.835938 L 286.390625 103.652344 L 278.746094 103.652344 L 278.746094 131.613281 C 278.746094 132.722656 278.078125 133.386719 276.972656 133.386719 L 265.449219 133.386719 C 264.339844 133.386719 263.675781 132.722656 263.675781 131.613281 L 263.675781 46.394531 C 263.675781 45.285156 264.339844 44.621094 265.449219 44.621094 L 293.261719 44.621094 C 303.675781 44.621094 309.214844 50.167969 309.214844 60.597656 Z M 278.746094 89.003906 L 289.714844 89.003906 C 292.59375 89.003906 294.144531 87.449219 294.144531 84.566406 L 294.144531 63.703125 C 294.144531 60.820312 292.59375 59.265625 289.714844 59.265625 L 278.746094 59.265625 Z M 278.746094 89.003906 "/>
<path style=" stroke:none;fill-rule:nonzero;fill:url(#linear2);" d="M 322.042969 44.621094 L 333.5625 44.621094 C 334.671875 44.621094 335.335938 45.285156 335.335938 46.394531 L 335.335938 131.613281 C 335.335938 132.722656 334.671875 133.386719 333.5625 133.386719 L 322.042969 133.386719 C 320.820312 133.386719 320.269531 132.722656 320.269531 131.613281 L 320.269531 46.394531 C 320.269531 45.285156 320.820312 44.621094 322.042969 44.621094 Z M 322.042969 44.621094 "/>
<path style=" stroke:none;fill-rule:nonzero;fill:url(#linear3);" d="M 392.769531 44.621094 L 407.398438 44.621094 C 408.839844 44.621094 409.613281 45.394531 409.613281 46.839844 L 409.613281 131.167969 C 409.613281 132.609375 408.839844 133.386719 407.398438 133.386719 L 397.09375 133.386719 C 395.652344 133.386719 394.875 132.609375 394.875 131.167969 L 394.875 81.234375 L 394.101562 81.234375 L 383.132812 131.390625 C 382.800781 132.722656 382.023438 133.386719 380.695312 133.386719 L 375.265625 133.386719 C 373.933594 133.386719 373.160156 132.722656 372.824219 131.390625 L 361.855469 81.234375 L 361.082031 81.234375 L 361.082031 131.167969 C 361.082031 132.609375 360.304688 133.386719 358.863281 133.386719 L 348.671875 133.386719 C 347.230469 133.386719 346.453125 132.609375 346.453125 131.167969 L 346.453125 46.839844 C 346.453125 45.394531 347.230469 44.621094 348.671875 44.621094 L 363.296875 44.621094 C 364.625 44.621094 365.402344 45.285156 365.734375 46.617188 L 378.035156 101.875 L 390.335938 46.617188 C 390.667969 45.285156 391.441406 44.621094 392.769531 44.621094 Z M 392.769531 44.621094 "/>
<path style=" stroke:none;fill-rule:nonzero;fill:url(#linear4);" d="M 464.898438 46.394531 L 464.898438 57.492188 C 464.898438 58.601562 464.453125 59.378906 463.125 59.378906 L 435.421875 59.378906 L 435.421875 81.570312 L 456.585938 81.570312 C 457.695312 81.570312 458.359375 82.234375 458.359375 83.457031 L 458.359375 94.441406 C 458.359375 95.660156 457.695312 96.328125 456.585938 96.328125 L 435.421875 96.328125 L 435.421875 118.742188 L 463.125 118.742188 C 464.453125 118.742188 464.898438 119.296875 464.898438 120.515625 L 464.898438 131.613281 C 464.898438 132.722656 464.453125 133.386719 463.125 133.386719 L 422.347656 133.386719 C 421.351562 133.386719 420.6875 132.722656 420.6875 131.613281 L 420.6875 46.394531 C 420.6875 45.285156 421.351562 44.621094 422.347656 44.621094 L 463.125 44.621094 C 464.453125 44.621094 464.898438 45.285156 464.898438 46.394531 Z M 464.898438 46.394531 "/>
<path style=" stroke:none;fill-rule:nonzero;fill:url(#linear5);" d="M 520.304688 46.394531 L 520.304688 57.492188 C 520.304688 58.601562 519.636719 59.265625 518.53125 59.265625 L 491.050781 59.265625 L 491.050781 81.570312 L 511.882812 81.570312 C 512.988281 81.570312 513.65625 82.234375 513.65625 83.34375 L 513.65625 94.441406 C 513.65625 95.660156 512.988281 96.214844 511.882812 96.214844 L 491.050781 96.214844 L 491.050781 131.613281 C 491.050781 132.722656 490.386719 133.386719 489.277344 133.386719 L 477.753906 133.386719 C 476.535156 133.386719 475.980469 132.722656 475.980469 131.613281 L 475.980469 46.394531 C 475.980469 45.285156 476.535156 44.621094 477.753906 44.621094 L 518.53125 44.621094 C 519.636719 44.621094 520.304688 45.285156 520.304688 46.394531 Z M 520.304688 46.394531 "/>
<path style=" stroke:none;fill-rule:nonzero;fill:url(#linear6);" d="M 545.371094 118.742188 L 571.742188 118.742188 C 572.960938 118.742188 573.515625 119.40625 573.515625 120.515625 L 573.515625 131.613281 C 573.515625 132.832031 572.960938 133.386719 571.742188 133.386719 L 532.074219 133.386719 C 530.964844 133.386719 530.300781 132.832031 530.300781 131.613281 L 530.300781 46.394531 C 530.300781 45.285156 530.964844 44.621094 532.074219 44.621094 L 543.597656 44.621094 C 544.816406 44.621094 545.371094 45.285156 545.371094 46.394531 Z M 545.371094 118.742188 "/>
<path style=" stroke:none;fill-rule:nonzero;fill:url(#linear7);" d="M 626.667969 46.394531 L 626.667969 57.492188 C 626.667969 58.601562 626.226562 59.378906 624.898438 59.378906 L 597.195312 59.378906 L 597.195312 81.570312 L 618.359375 81.570312 C 619.46875 81.570312 620.132812 82.234375 620.132812 83.457031 L 620.132812 94.441406 C 620.132812 95.660156 619.46875 96.328125 618.359375 96.328125 L 597.195312 96.328125 L 597.195312 118.742188 L 624.898438 118.742188 C 626.226562 118.742188 626.667969 119.296875 626.667969 120.515625 L 626.667969 131.613281 C 626.667969 132.722656 626.226562 133.386719 624.898438 133.386719 L 584.121094 133.386719 C 583.121094 133.386719 582.457031 132.722656 582.457031 131.613281 L 582.457031 46.394531 C 582.457031 45.285156 583.121094 44.621094 584.121094 44.621094 L 624.898438 44.621094 C 626.226562 44.621094 626.667969 45.285156 626.667969 46.394531 Z M 626.667969 46.394531 "/>
<path style=" stroke:none;fill-rule:nonzero;fill:url(#linear8);" d="M 669.554688 88.117188 L 687.171875 130.722656 C 687.835938 132.277344 687.285156 133.386719 685.511719 133.386719 L 674.097656 133.386719 C 672.878906 133.386719 671.992188 132.945312 671.550781 131.835938 L 660.910156 104.980469 L 650.273438 131.835938 C 649.832031 132.945312 648.945312 133.386719 647.726562 133.386719 L 636.3125 133.386719 C 634.539062 133.386719 633.984375 132.277344 634.652344 130.722656 L 652.15625 88.117188 L 635.316406 47.28125 C 634.652344 45.730469 635.203125 44.621094 636.976562 44.621094 L 648.058594 44.621094 C 649.277344 44.621094 650.164062 45.0625 650.605469 46.171875 L 660.910156 72.46875 L 671.214844 46.171875 C 671.660156 45.0625 672.546875 44.621094 673.765625 44.621094 L 684.84375 44.621094 C 686.617188 44.621094 687.171875 45.730469 686.507812 47.28125 Z M 669.554688 88.117188 "/>
<path style=" stroke:none;fill-rule:evenodd;fill:url(#linear9);" d="M 175.707031 88.292969 L 88.132812 0.597656 L 0.554688 88.292969 L 88.132812 175.992188 Z M 105.265625 56.78125 L 121.257812 55.257812 L 110.59375 44.585938 L 99.933594 44.585938 Z M 77.851562 44.585938 L 71.785156 59.007812 L 44.347656 56.78125 L 48.914062 75.839844 L 81.660156 88.035156 L 86.226562 88.035156 L 86.226562 44.585938 Z M 66.429688 90.320312 L 73.285156 88.796875 L 67.953125 96.417969 L 67.953125 120.050781 L 49.675781 104.804688 L 49.675781 78.886719 L 58.054688 81.9375 Z M 109.074219 90.320312 L 102.21875 88.796875 L 107.550781 96.417969 L 107.550781 120.050781 L 125.824219 104.804688 L 125.824219 78.886719 L 117.449219 81.9375 Z M 76.238281 88.683594 L 70.164062 97.851562 L 70.164062 132.222656 L 74.71875 139.09375 L 80.035156 144.441406 L 95.21875 144.441406 L 100.535156 139.09375 L 105.089844 132.222656 L 105.089844 97.851562 L 99.015625 88.683594 L 95.21875 90.976562 L 80.035156 90.976562 Z M 107.550781 134.53125 L 117.449219 124.621094 L 117.449219 114.714844 L 107.550781 123.097656 Z M 58.054688 124.621094 L 67.953125 134.53125 L 67.953125 123.097656 L 58.054688 114.714844 Z M 89.273438 88.035156 L 89.273438 44.585938 L 97.648438 44.585938 L 103.71875 59.011719 L 131.917969 56.78125 L 127.347656 75.839844 L 94.605469 88.035156 Z M 54.246094 55.257812 L 70.238281 56.78125 L 75.566406 44.585938 L 64.90625 44.585938 Z M 54.246094 55.257812 "/>
</g>
</svg>
